<svg width="250" height="250" viewBox="0 0 250 250" fill="none" xmlns="http://www.w3.org/2000/svg">
<path d="M125.001 177.084C107.567 177.084 92.3935 190.261 84.5596 209.701C80.8179 218.985 86.187 229.167 93.3212 229.167H156.68C163.814 229.167 169.183 218.985 165.441 209.701C157.608 190.261 142.434 177.084 125.001 177.084Z" stroke="#9D4C1D" stroke-width="15.625" stroke-linecap="round"/>
<path d="M192.708 52.084H205.231C217.74 52.084 223.994 52.084 227.258 56.0148C230.52 59.9456 229.164 65.8458 226.45 77.646L222.38 95.3451C216.259 121.965 193.863 141.759 166.666 145.834" stroke="#9D4C1D" stroke-width="15.625" stroke-linecap="round" stroke-linejoin="round"/>
<path d="M57.2923 52.084H44.7693C32.2602 52.084 26.0058 52.084 22.7427 56.0148C19.4797 59.9456 20.8365 65.8458 23.5501 77.646L27.6202 95.3451C33.7417 121.965 56.1373 141.759 83.334 145.834" stroke="#9D4C1D" stroke-width="15.625" stroke-linecap="round" stroke-linejoin="round"/>
<path d="M124.999 177.084C156.466 177.084 182.968 128.52 190.934 62.4058C193.137 44.1213 194.239 34.9791 188.404 27.9065C182.569 20.834 173.148 20.834 154.306 20.834H95.6929C76.8509 20.834 67.4299 20.834 61.5949 27.9065C55.7599 34.9791 56.8613 44.1213 59.0645 62.4058C67.0306 128.52 93.533 177.084 124.999 177.084Z" stroke="#9D4C1D" stroke-width="15.625" stroke-linecap="round"/>
</svg>
