<svg width="73" height="73" viewBox="0 0 73 73" fill="none" xmlns="http://www.w3.org/2000/svg">
<path d="M43.005 49.9996C43.005 49.7013 43.1236 49.4151 43.3345 49.2041C43.5455 48.9932 43.8317 48.8746 44.13 48.8746C44.4284 48.8746 44.7146 48.9932 44.9255 49.2041C45.1365 49.4151 45.255 49.7013 45.255 49.9996C45.255 50.298 45.1365 50.5842 44.9255 50.7951C44.7146 51.0061 44.4284 51.1246 44.13 51.1246C43.8317 51.1246 43.5455 51.0061 43.3345 50.7951C43.1236 50.5842 43.005 50.298 43.005 49.9996ZM44.13 55.6246C44.4284 55.6246 44.7146 55.5061 44.9255 55.2951C45.1365 55.0842 45.255 54.798 45.255 54.4996C45.255 54.2013 45.1365 53.9151 44.9255 53.7041C44.7146 53.4932 44.4284 53.3746 44.13 53.3746C43.8317 53.3746 43.5455 53.4932 43.3345 53.7041C43.1236 53.9151 43.005 54.2013 43.005 54.4996C43.005 54.798 43.1236 55.0842 43.3345 55.2951C43.5455 55.5061 43.8317 55.6246 44.13 55.6246ZM15.1245 31.5239C15.0858 31.6888 15.0851 31.8604 15.1224 32.0256C15.1597 32.1908 15.234 32.3454 15.3398 32.4778L21.7177 40.5093L31.755 35.7857V32.7883C29.6853 30.9331 28.38 28.2414 28.38 25.2496V18.0505L27.5016 16.9523C27.3641 16.78 27.2803 16.571 27.2607 16.3514L27.2595 16.3516C27.2372 16.1062 26.7551 10.2964 30.3963 6.30927C32.5534 3.94734 35.6601 2.74963 39.6301 2.74963C43.6 2.74963 46.7067 3.94734 48.8638 6.30913C52.505 10.2964 52.0228 16.1061 52.0005 16.3514L51.9994 16.3513C51.9799 16.5709 51.8962 16.7799 51.7585 16.9522L50.88 18.0505V25.2496C50.88 28.2413 49.5748 30.9331 47.505 32.7883V35.7857L60.8162 42.0498C64.348 43.7119 66.63 47.3078 66.63 51.2111V69.1246C66.63 69.423 66.5115 69.7092 66.3005 69.9201C66.0896 70.1311 65.8034 70.2496 65.505 70.2496H13.755C13.4567 70.2496 13.1705 70.1311 12.9596 69.9201C12.7486 69.7092 12.63 69.423 12.63 69.1246V51.2111C12.63 48.3786 13.7925 45.7235 15.8429 43.8127L6.78356 32.4046C6.13964 31.5938 5.90494 30.5492 6.13992 29.5383C6.49472 28.0116 7.28531 25.0677 8.59341 22.5042C10.3303 19.1004 12.4454 17.3746 14.88 17.3746C18.782 17.3746 21.1286 19.6836 22.0235 21.8443C22.8552 23.8518 22.578 25.8926 21.3006 27.1701C20.1038 28.3667 18.2318 29.5755 15.7362 30.7631C15.5833 30.8354 15.4488 30.9414 15.3429 31.0732C15.2369 31.205 15.1622 31.3591 15.1245 31.5239ZM29.2816 67.9996H35.05L32.7781 65.1388L29.2816 67.9996ZM37.9233 67.9996H40.6752L36.188 62.349L34.5199 63.7138L37.9233 67.9996ZM36.3647 57.9386L33.2724 53.6095C32.9118 53.1045 32.2079 52.9875 31.703 53.3479L25.996 57.4244L24.9714 61.5226C24.9104 61.7667 24.7692 61.9832 24.5707 62.1377L17.0339 67.9996H25.7286L36.1618 59.4634C36.619 59.0892 36.7081 58.4196 36.3647 57.9386ZM19.1548 63.4996H14.88V66.8244L19.1548 63.4996ZM28.6027 52.7974L16.2722 37.2701L14.6348 38.6736L26.8467 54.0515L28.6027 52.7974ZM14.88 51.2111V61.2496H22.0477L22.8829 60.6001L23.9137 56.4768C23.9784 56.2174 24.1335 55.9896 24.3511 55.8343L25.0135 55.3611L17.2486 45.583C15.7359 47.0589 14.88 49.0693 14.88 51.2111ZM64.38 63.4996H55.38V67.9996H64.38V63.4996ZM43.523 42.8133L48.2449 45.1742L51.5707 40.1856L46.7783 37.9304L43.523 42.8133ZM33.072 20.3137C34.2372 19.5524 36.4276 18.4996 39.6301 18.4996C42.8325 18.4996 45.0229 19.5524 46.1881 20.3137L49.5073 16.1648C48.3488 14.6333 46.0396 13.8303 44.2051 13.4189C41.8196 12.8836 39.6509 12.8746 39.6293 12.8746C39.6092 12.8746 37.4405 12.8836 35.055 13.4189C33.2205 13.8303 30.9113 14.6333 29.753 16.1648L33.072 20.3137ZM29.6625 13.2144C33.366 10.6618 39.3156 10.6246 39.6301 10.6246C39.9445 10.6246 45.8942 10.6618 49.5975 13.2144C49.3301 11.5366 48.689 9.44831 47.192 7.81537C45.4792 5.94688 42.935 4.99963 39.6301 4.99963C36.3251 4.99963 33.7809 5.94688 32.0681 7.81523C30.5711 9.44816 29.93 11.5363 29.6625 13.2144ZM38.5051 33.1246H40.7551C45.0973 33.1246 48.63 29.592 48.63 25.2496V20.863L47.2585 22.5773C47.1597 22.7009 47.0359 22.8022 46.8952 22.8747C46.7546 22.9471 46.6002 22.9891 46.4422 22.9978C46.2842 23.0069 46.1261 22.9824 45.9783 22.9259C45.8304 22.8694 45.6962 22.7822 45.5845 22.6701C45.5844 22.6701 45.0786 22.186 44.0962 21.71C42.7812 21.0728 41.2786 20.7496 39.6301 20.7496C37.9815 20.7496 36.4789 21.0728 35.1639 21.71C34.1803 22.1867 33.6744 22.6714 33.6695 22.6762C33.5581 22.7877 33.4244 22.8743 33.2771 22.9302C33.1298 22.9862 32.9722 23.0103 32.8149 23.0009C32.4954 22.9832 32.2017 22.8272 32.0017 22.5772L30.63 20.863V25.2496C30.63 29.592 34.1628 33.1246 38.5051 33.1246ZM34.005 34.316V36.159L39.6301 44.5965L45.255 36.159V34.316C43.8576 35.0134 42.3169 35.3759 40.7551 35.3746H38.5051C36.9432 35.3759 35.4025 35.0134 34.005 34.316ZM27.6894 40.1856L31.0152 45.1742L35.7371 42.8133L32.4818 37.9302L27.6894 40.1856ZM23.1551 42.3194L30.4368 51.489C31.9481 50.4429 34.0315 50.8011 35.1033 52.3015L38.1957 56.6308C39.1384 57.9509 38.9913 59.7433 37.9091 60.8985L43.5481 67.9996H53.13V52.2496C53.13 51.9513 53.2486 51.6651 53.4595 51.4541C53.6705 51.2432 53.9567 51.1246 54.255 51.1246C54.5534 51.1246 54.8396 51.2432 55.0505 51.4541C55.2615 51.6651 55.38 51.9513 55.38 52.2496V61.2496H64.38V51.2111C64.38 48.1752 62.6051 45.3783 59.8581 44.0855L53.629 41.1542L49.566 47.2486C49.414 47.4768 49.1838 47.6416 48.9188 47.7119C48.6537 47.7823 48.3721 47.7534 48.1269 47.6307L42.2652 44.6998L40.7551 46.9652V54.4996C40.7551 54.798 40.6365 55.0842 40.4255 55.2951C40.2146 55.5061 39.9284 55.6246 39.6301 55.6246C39.3317 55.6246 39.0455 55.5061 38.8346 55.2951C38.6236 55.0842 38.5051 54.798 38.5051 54.4996V46.9652L36.9949 44.7L31.1332 47.6309C30.888 47.7536 30.6064 47.7824 30.3414 47.7121C30.0764 47.6417 29.8462 47.477 29.694 47.2489L25.6311 41.1545L23.1551 42.3194ZM12.9325 31.016C13.0459 30.521 13.2701 30.0583 13.5883 29.6626C13.9064 29.2669 14.3102 28.9485 14.7692 28.7315C17.0008 27.6696 18.7091 26.5795 19.7095 25.5791C20.3218 24.9668 20.4142 23.8387 19.9448 22.7053C19.3279 21.2159 17.6734 19.6246 14.88 19.6246C13.8348 19.6246 12.2433 20.3016 10.5975 23.527C9.39834 25.877 8.66302 28.6211 8.33156 30.0476C8.29237 30.213 8.29125 30.3852 8.3283 30.5511C8.36536 30.717 8.43961 30.8724 8.54545 31.0054L13.2347 36.9104L14.8722 35.507L13.5779 33.877C12.9342 33.0666 12.6991 32.0238 12.9325 31.016Z" fill="#212121"/>
</svg>
