<svg width="73" height="73" viewBox="0 0 73 73" fill="none" xmlns="http://www.w3.org/2000/svg">
<g clip-path="url(#clip0_1790_24768)">
<path d="M15.887 28.9167C16.0626 29.1795 16.2888 29.4047 16.5523 29.5792C16.8158 29.7537 17.1114 29.874 17.4218 29.9331C17.5743 29.9638 17.7295 29.9791 17.885 29.9787C17.9378 29.9787 17.987 29.9595 18.0386 29.9559L32.4062 51.4011L24.7034 62.8995C17.4722 54.6747 11.0558 52.5915 7.79183 52.0899C6.82493 51.9429 5.83625 52.1015 4.96387 52.5436C4.09148 52.9857 3.37897 53.6892 2.92583 54.5559C0.998758 57.9771 0.326481 61.9636 1.02503 65.8275C1.19352 66.6101 1.55173 67.3392 2.06815 67.9509C2.58457 68.5625 3.24338 69.0378 3.98663 69.3351C9.023 71.3995 14.41 72.4739 19.853 72.4995C21.5104 72.5033 23.1661 72.3911 24.8078 72.1635C25.6378 72.0413 26.433 71.7465 27.1419 71.298C27.8509 70.8494 28.4579 70.2572 28.9238 69.5595L36.7466 57.8835L44.5634 69.5511C45.0271 70.2527 45.634 70.8483 46.3442 71.2988C47.0544 71.7492 47.8519 72.0443 48.6842 72.1647C50.3245 72.391 51.9785 72.5029 53.6342 72.4995C59.0832 72.4743 64.4765 71.4008 69.5198 69.3375C70.2595 69.0352 70.9143 68.5573 71.4278 67.9451C71.9413 67.3329 72.298 66.6049 72.467 65.8239C73.1673 61.9566 72.4928 57.9662 70.5602 54.5439C70.101 53.6841 69.3875 52.9871 68.5172 52.5481C67.6469 52.109 66.6622 51.9495 65.6978 52.0911C62.4362 52.5879 56.0222 54.6663 48.7862 62.8971L41.0846 51.4095L55.4546 29.9535C55.505 29.9535 55.553 29.9751 55.6034 29.9751C55.9984 29.9757 56.3875 29.8793 56.7365 29.6943C57.0855 29.5093 57.3838 29.2415 57.605 28.9143L72.335 6.92311C72.6876 6.39113 72.8153 5.74119 72.69 5.11537C72.5648 4.48956 72.1968 3.9388 71.6666 3.58351L67.6622 0.891909C67.1294 0.54806 66.4833 0.42612 65.8618 0.552124C65.2403 0.678127 64.6927 1.04209 64.3358 1.56631L49.5974 23.5707C49.3713 23.9204 49.2395 24.3227 49.2149 24.7384C49.1903 25.1542 49.2737 25.5692 49.457 25.9431L36.7466 44.9259L24.0266 25.9455C24.2105 25.5692 24.2937 25.1516 24.2683 24.7336C24.2429 24.3155 24.1096 23.9112 23.8814 23.5599L9.14663 1.56271C8.78787 1.03873 8.23816 0.676105 7.61527 0.552515C6.99238 0.428925 6.34587 0.554202 5.81423 0.901509L1.81583 3.58591C1.28632 3.94166 0.919485 4.49287 0.795762 5.11868C0.67204 5.74449 0.801526 6.39382 1.15583 6.92431L15.887 28.9167ZM26.927 68.2251C26.6491 68.6429 26.2865 68.9976 25.8627 69.2664C25.4389 69.5351 24.9634 69.7118 24.467 69.7851C17.8203 70.6167 11.0715 69.6963 4.89023 67.1151C4.51374 66.9669 4.17918 66.7289 3.91565 66.4219C3.65213 66.1149 3.46764 65.7481 3.37823 65.3535C2.79142 62.0309 3.38262 58.6077 5.04983 55.6743C5.24071 55.3021 5.53032 54.9895 5.88696 54.7709C6.2436 54.5523 6.65351 54.436 7.07183 54.4347C7.19238 54.4342 7.31277 54.4434 7.43183 54.4623C10.5158 54.9351 16.7546 57.0195 23.8982 65.6499C24.0148 65.7969 24.1654 65.9131 24.3371 65.9886C24.5088 66.0641 24.6964 66.0966 24.8834 66.0831C25.0702 66.0738 25.2522 66.021 25.4149 65.9289C25.5776 65.8369 25.7165 65.708 25.8206 65.5527L35.1974 51.5535L37.2026 52.8963L26.927 68.2251ZM47.6714 65.5479C47.7755 65.7032 47.9145 65.8321 48.0772 65.9241C48.2399 66.0162 48.4219 66.069 48.6086 66.0783C48.7955 66.0896 48.9823 66.0562 49.1536 65.9809C49.325 65.9055 49.4759 65.7904 49.5938 65.6451C56.7446 57.0051 62.9774 54.9315 66.0578 54.4623C66.5313 54.3901 67.0155 54.4679 67.4425 54.6848C67.8694 54.9017 68.2178 55.2469 68.4386 55.6719C70.1087 58.5998 70.703 62.0194 70.1186 65.3391C70.029 65.7344 69.8452 66.1023 69.5831 66.4115C69.3209 66.7207 68.988 66.962 68.6126 67.1151C62.4263 69.6966 55.6731 70.6178 49.0214 69.7875C48.524 69.7148 48.0475 69.5376 47.6235 69.2675C47.1995 68.9974 46.8375 68.6405 46.5614 68.2203L38.1866 55.7271L39.635 53.5671L47.6714 65.5479ZM66.3362 2.89951L70.3466 5.58271L55.601 27.5739L51.641 24.9267L51.5978 24.8979L66.3362 2.89951ZM51.2666 27.5595L52.271 28.2303L53.2742 28.9023L38.5346 50.8995L36.5282 49.5567L51.2666 27.5595ZM35.3066 47.0823L33.8582 49.2423L20.2202 28.8999L22.2242 27.5607L35.3066 47.0823ZM3.15623 5.57551L7.15943 2.89951L21.8786 24.8955L17.885 27.5703H17.879L3.14663 5.58511L3.15623 5.57551Z" fill="#212121"/>
<path d="M8.96567 57.2594C8.65971 57.1912 8.33919 57.2454 8.07268 57.4105C7.80617 57.5755 7.61482 57.8383 7.53957 58.1426C7.46432 58.4469 7.51113 58.7686 7.67 59.0388C7.82886 59.3091 8.08717 59.5064 8.38967 59.5886C11.0378 60.3994 13.5438 61.6172 15.8177 63.1982C16.0821 63.3754 16.4061 63.4402 16.7184 63.3784C17.0306 63.3166 17.3056 63.1333 17.4827 62.8688C17.6598 62.6044 17.7246 62.2804 17.6628 61.9681C17.601 61.6559 17.4177 61.381 17.1533 61.2038C14.6531 59.4588 11.8886 58.127 8.96567 57.2594ZM15.8441 64.7246L7.50407 62.0378C7.20092 61.9403 6.87145 61.9672 6.58812 62.1125C6.30479 62.2579 6.09081 62.5099 5.99327 62.813C5.89572 63.1162 5.92259 63.4457 6.06797 63.729C6.21335 64.0123 6.46532 64.2263 6.76847 64.3238L15.1085 67.0094C15.2276 67.0474 15.3518 67.0668 15.4769 67.067C15.7629 67.067 16.0395 66.9648 16.2569 66.7789C16.4742 66.5929 16.618 66.3355 16.6623 66.0529C16.7066 65.7703 16.6485 65.4812 16.4985 65.2377C16.3484 64.9941 16.1164 64.8122 15.8441 64.7246ZM57.0185 63.3986C57.2556 63.3983 57.4874 63.3278 57.6845 63.1958C59.9579 61.6147 62.4634 60.3969 65.1113 59.5862C65.4138 59.504 65.6721 59.3067 65.8309 59.0364C65.9898 58.7662 66.0366 58.4445 65.9614 58.1402C65.8861 57.8359 65.6948 57.5731 65.4282 57.4081C65.1617 57.243 64.8412 57.1888 64.5353 57.257C61.6126 58.1245 58.8486 59.4563 56.3489 61.2014C56.1349 61.3447 55.9726 61.553 55.8861 61.7956C55.7996 62.0382 55.7934 62.3021 55.8685 62.5485C55.9436 62.7948 56.0959 63.0105 56.303 63.1636C56.5101 63.3167 56.7609 63.3991 57.0185 63.3986ZM57.6569 64.7246C57.3845 64.8122 57.1523 64.9943 57.0023 65.2379C56.8523 65.4816 56.7943 65.7708 56.8387 66.0535C56.8832 66.3361 57.0272 66.5936 57.2448 66.7795C57.4623 66.9653 57.7391 67.0673 58.0253 67.067C58.1499 67.0667 58.2737 67.0473 58.3925 67.0094L66.7325 64.3238C67.0356 64.2263 67.2876 64.0123 67.433 63.729C67.5783 63.4457 67.6052 63.1162 67.5077 62.813C67.4101 62.5099 67.1961 62.2579 66.9128 62.1125C66.6295 61.9672 66.3 61.9403 65.9969 62.0378L57.6569 64.7246Z" fill="#212121"/>
</g>
<defs>
<clipPath id="clip0_1790_24768">
<rect width="72" height="72" fill="white" transform="translate(0.75 0.499634)"/>
</clipPath>
</defs>
</svg>
