<svg width="25" height="25" viewBox="0 0 25 25" fill="none" xmlns="http://www.w3.org/2000/svg">
<g clip-path="url(#clip0_1706_10329)">
<path d="M24.7366 13.1988C24.7366 12.2155 24.6549 11.498 24.4782 10.7539H12.9883V15.1919H19.7326C19.5967 16.2948 18.8624 17.9557 17.2307 19.0718L17.2078 19.2204L20.8407 21.9706L21.0924 21.9952C23.404 19.909 24.7366 16.8396 24.7366 13.1988Z" fill="#4285F4"/>
<path d="M12.9891 24.8914C16.2933 24.8914 19.0671 23.8284 21.0932 21.9948L17.2315 19.0714C16.1981 19.7757 14.8111 20.2673 12.9891 20.2673C9.75291 20.2673 7.00622 18.1812 6.02711 15.2979L5.88359 15.3098L2.10604 18.1666L2.05664 18.3008C4.06906 22.2073 8.20273 24.8914 12.9891 24.8914Z" fill="#34A853"/>
<path d="M6.02775 15.2979C5.7694 14.5538 5.61989 13.7565 5.61989 12.9327C5.61989 12.1089 5.7694 11.3116 6.01416 10.5675L6.00732 10.4091L2.18243 7.50635L2.05729 7.56452C1.22787 9.18561 0.751953 11.006 0.751953 12.9327C0.751953 14.8594 1.22787 16.6798 2.05729 18.3009L6.02775 15.2979Z" fill="#FBBC05"/>
<path d="M12.9891 5.59815C15.2871 5.59815 16.8371 6.56814 17.721 7.37873L21.1748 4.0834C19.0536 2.15672 16.2933 0.974121 12.9891 0.974121C8.20273 0.974121 4.06906 3.65818 2.05664 7.56469L6.01351 10.5677C7.00622 7.68432 9.75291 5.59815 12.9891 5.59815Z" fill="#EB4335"/>
</g>
<defs>
<clipPath id="clip0_1706_10329">
<rect width="24" height="24" fill="white" transform="translate(0.75 0.974121)"/>
</clipPath>
</defs>
</svg>
