<svg width="65" height="64" viewBox="0 0 65 64" fill="none" xmlns="http://www.w3.org/2000/svg">
<path d="M58.7936 14.3779C59.932 17.3234 58.3355 19.3401 55.2456 21.3266C52.7523 22.9294 49.5758 24.6658 46.2099 27.6345C42.9104 30.5446 39.6902 34.0497 36.8286 37.4998C33.9784 40.9358 31.556 44.2292 29.8443 46.6678C28.7382 48.2436 27.1947 50.5942 27.1947 50.5942C26.1062 52.3164 24.1492 53.3588 22.0509 53.3326C19.952 53.3065 18.0242 52.2164 16.9829 50.4668C14.3208 45.9945 12.2666 44.2284 11.3225 43.594C8.79624 41.8964 5.83203 41.6454 5.83203 37.6892C5.83203 34.5476 8.48507 32.0006 11.7578 32.0006C14.0684 32.086 16.216 32.9945 18.1189 34.2734C19.3352 35.0908 20.6237 36.1718 21.964 37.5948C23.5369 35.4494 25.4325 32.974 27.5574 30.4124C30.6432 26.6924 34.2856 22.7014 38.1918 19.2563C42.0315 15.8696 46.471 12.6994 51.1766 11.0233C54.2451 9.93042 57.6552 11.4323 58.7936 14.3779Z" fill="#9D4C1D"/>
</svg>
